<?xml version="1.0" encoding="UTF-8" standalone="no"?>
<!-- Created with Inkscape (http://www.inkscape.org/) -->

<svg
   xmlns:dc="http://purl.org/dc/elements/1.1/"
   xmlns:cc="http://creativecommons.org/ns#"
   xmlns:rdf="http://www.w3.org/1999/02/22-rdf-syntax-ns#"
   xmlns:svg="http://www.w3.org/2000/svg"
   xmlns="http://www.w3.org/2000/svg"
   version="1.1"
   width="300"
   height="300"
   id="svg2">

  <text
     x="76.730972"
     y="218.05777"
     style="font-size:33px;fill:#000;stroke:none;font-family:Eras Medium ITC;">script font</text>
  <g
     transform="translate(-0.09651404,2.3702964e-6)">
    <path
       d="M 133.06975,149.06964 C 132.51967,149.36759 131.93528,149.65405 131.31657,149.92904 130.53731,150.27282 129.82687,150.53637 129.18525,150.71969 127.76431,151.10931 126.7674,151.25827 126.19452,151.16658 125.94237,151.14369 125.88508,151.00618 126.02264,150.75407 126.0455,150.70826 126.28614,150.36449 126.74454,149.72278 127.38617,148.87486 128.45183,147.24773 129.94152,144.84137 132.14153,141.2892 133.78013,138.50474 134.85731,136.48797 136.96564,132.45454 138.90217,127.71064 140.66688,122.25625 143.62315,113.18101 144.73464,105.70994 144.00136,99.843007 143.63461,96.817985 142.80958,94.193943 141.52628,91.970872 140.21992,89.747967 138.67299,88.086455 136.8855,86.986332 136.72501,86.89475 136.51876,86.780163 136.26673,86.642571 135.99166,86.482237 135.81977,86.390567 135.75109,86.367561 135.68227,86.321815 135.64789,86.287439 135.64796,86.264433 135.67081,86.241604 135.71665,86.218687 135.78547,86.195681 135.99166,86.149935 136.41563,86.092641 137.05738,86.0238 138.13443,85.955137 139.05113,85.932219 139.80747,85.955048 140.05949,85.978054 140.42617,86.01243 140.90751,86.058176 141.34287,86.081183 141.66371,86.1041 141.87004,86.126929 141.98456,86.127017 142.05331,86.115559 142.0763,86.092552 142.09914,86.069724 142.1106,86.01243 142.11068,85.920672 142.06477,85.599917 141.89289,85.026982 141.59503,84.201865 141.18245,83.056086 140.58659,81.486244 139.80747,79.492334 138.66153,76.627754 137.66463,74.519353 136.81675,73.167125 134.68536,69.660864 132.08424,67.277454 129.01337,66.016888 125.30069,64.481531 120.47657,64.687788 114.54101,66.635659 109.91165,68.171233 104.83545,70.772358 99.312385,74.439042 90.282898,80.443502 82.364935,87.284346 75.558474,94.961596 71.708344,99.338899 68.201981,104.00259 65.039376,108.95268 60.455899,116.17173 57.350591,123.00112 55.723443,129.44086 54.348412,134.89525 53.844229,140.57876 54.210893,146.49143 54.646338,153.61877 56.30785,159.70334 59.195433,164.74515 61.785109,169.30573 65.062297,172.70896 69.027008,174.95487 71.891683,176.582 75.065743,177.56745 78.549198,177.91121 81.184689,178.18622 84.954602,178.00288 89.858947,177.3612 96.046624,176.53617 101.45513,175.69968 106.08448,174.85174 114.93056,173.17877 123.92564,170.90995 133.06975,168.04526 134.85724,167.15149 136.27812,165.8452 137.33239,164.12638 138.36361,162.43051 138.87925,160.5742 138.87932,158.55745 138.87925,156.56365 138.36361,154.70734 137.33239,152.98851 136.27812,151.26973 134.85724,149.96344 133.06975,149.06964 z M 124.09758,128.27207 C 120.93492,133.81813 117.2223,139.08913 112.95971,144.0851 109.36163,148.34776 105.4313,152.34685 101.1687,156.08237 96.768522,159.93251 92.723601,162.76281 89.03392,164.57327 86.03172,166.04 83.304549,166.79627 80.852399,166.8421 77.093933,166.88794 74.217799,165.79936 72.223989,163.57637 70.734354,161.90341 69.874951,159.53146 69.645778,156.4605 69.462438,153.87086 69.852034,150.86868 70.814567,147.45396 71.731261,144.13096 73.266727,139.97145 75.420969,134.97542 76.841842,131.65244 78.171051,128.85651 79.408601,126.58764 80.760717,124.06678 82.41077,121.36252 84.358765,118.47487 86.283811,115.63317 88.346377,112.7685 90.54647,109.88084 92.746518,106.97039 93.903847,105.60681 94.01846,105.79008 94.064269,105.8589 93.342371,107.27978 91.852763,110.05272 90.0881,113.28414 88.816184,115.96547 88.037012,118.09674 87.87657,118.48639 87.670314,119.07078 87.418241,119.84992 86.157765,123.47092 85.596289,125.36161 85.733811,125.52198 L 89.2058,120.1593 C 89.893302,119.12808 90.672493,118.00512 91.543378,116.79044 93.537169,113.99458 95.359102,111.72576 97.009183,109.98397 97.994603,108.92983 99.277978,107.70375 100.85931,106.30572 104.06771,103.48695 106.88656,101.28688 109.31584,99.705503 111.9513,98.032608 114.79306,96.623187 117.84112,95.477238 120.54533,94.491869 122.85998,94.033521 124.7851,94.102192 126.82469,94.171025 128.39454,94.675208 129.49463,95.614742 130.70919,96.669022 131.49984,98.468038 131.86659,101.0118 132.27904,103.89946 131.99257,107.34853 131.00718,111.35901 130.34252,114.10916 129.51749,116.72175 128.5321,119.19677 127.43201,122.01567 125.95383,125.04077 124.09758,128.27207 z"
       style="fill:#9d0000;" />
    <path
       d="M 222.58521,85.130021 C 222.90597,85.038441 223.02055,85.141569 222.92897,85.439406 222.88305,85.599917 222.64242,86.01243 222.20707,86.676947 221.72572,87.387474 220.74027,88.980234 219.25073,91.45523 218.95271,91.959496 218.2079,93.197036 217.01628,95.167853 216.07658,96.680481 215.32031,97.918021 214.74745,98.880475 213.69317,100.62227 212.08895,103.38382 209.93479,107.16512 207.82632,110.80906 206.21064,113.57061 205.08776,115.44977 204.88143,115.79359 204.70955,115.99985 204.57211,116.06854 204.41162,116.16027 204.12516,116.20611 203.71271,116.20605 202.3376,116.20611 200.18336,116.20611 197.25,116.20605 L 187.14341,116.20605 C 186.29542,116.20611 185.83707,116.1259 185.76837,115.96542 185.69956,115.80505 185.96311,115.404 186.55902,114.76225 188.91946,112.2414 191.18828,109.94966 193.36549,107.88702 197.67391,103.83071 202.8074,99.522239 208.766,94.961596 211.72227,92.71577 215.28593,90.103187 219.45698,87.123836 221.10695,85.932219 222.14969,85.267615 222.58521,85.130021 z M 221.69143,140.40685 C 222.01219,140.33813 222.26428,140.20063 222.44771,139.99434 222.56221,139.87978 222.8143,139.54748 223.20398,138.99743 224.05184,137.82868 224.88832,136.68281 225.71344,135.55981 226.65296,134.34523 227.43215,133.35978 228.05102,132.60347 228.16551,132.44309 228.49781,132.05349 229.04792,131.43468 229.43743,130.95346 229.75827,130.56386 230.01046,130.26589 231.3854,128.52421 232.34794,127.29813 232.89805,126.58764 234.06674,125.00639 234.82302,123.59697 235.16688,122.35938 235.64804,120.50312 235.39595,118.99057 234.4106,117.82173 233.70006,116.97384 232.22189,116.48112 229.97608,116.34355 229.74681,116.32069 228.16551,116.27486 225.23217,116.20605 224.75082,116.18319 224.49873,116.08006 224.4759,115.89666 224.45289,115.78214 224.56748,115.49567 224.81966,115.03726 224.95707,114.80815 225.15187,114.45293 225.40405,113.9716 225.65605,113.51331 225.85085,113.16955 225.98845,112.94032 227.91342,109.43401 229.44888,106.66101 230.59485,104.62129 232.31356,101.61918 233.90632,98.880551 235.37313,96.405393 235.90013,95.580446 236.73662,94.228319 237.88259,92.349009 238.98252,90.607369 239.81901,89.255243 240.39205,88.292625 242.15658,85.336367 243.48579,82.712325 244.37968,80.42049 245.68586,77.051726 246.24734,74.175592 246.06411,71.792079 245.94941,70.531726 245.50252,69.133764 244.72344,67.598191 243.94414,65.99408 243.15349,64.836751 242.35149,64.126201 241.29718,63.163781 240.16277,62.911689 238.94825,63.369926 238.4898,63.553377 237.19497,64.22944 235.06375,65.398118 225.02583,70.944239 215.19426,77.406946 205.56902,84.786259 197.11243,91.271974 188.19756,98.811799 178.82439,107.40576 176.69303,109.3538 174.56171,111.33616 172.43043,113.35283 170.84909,114.84252 169.73759,115.70192 169.09594,115.93104 168.61464,116.0686 167.1823,116.17173 164.79892,116.24042 162.53007,116.28632 159.61956,116.37799 156.06739,116.51543 152.19432,116.67591 149.34111,117.16864 147.50773,117.99361 144.73471,119.20829 142.31692,120.73229 140.25436,122.56563 139.01682,123.68864 137.49281,125.52203 135.68234,128.06582 134.62813,129.53258 133.90624,130.80449 133.51664,131.88157 132.92079,133.53166 132.82912,135.06713 133.24163,136.48797 133.65415,137.90889 134.61668,139.05476 136.12923,139.92558 137.25218,140.56731 138.6616,140.9569 140.35749,141.09437 140.95334,141.14024 141.70961,141.16316 142.62632,141.16312 143.31383,141.16316 143.70343,141.17462 143.7951,141.1975 144.20761,141.22045 144.42532,141.31212 144.44825,141.47251 144.44824,141.63296 144.02427,142.16006 143.17633,143.05381 142.67214,143.60386 142.1565,144.16534 141.62941,144.73824 140.5752,145.88414 139.54392,147.0071 138.53556,148.1071 138.00845,148.68007 137.49281,149.253 136.98863,149.82591 136.50736,150.33012 136.25527,150.60513 136.23235,150.65094 135.95734,150.90305 135.64796,151.05202 135.3042,151.09783 135.05211,151.12077 134.67397,151.13223 134.16979,151.1322 133.68852,151.15514 133.32184,151.17806 133.06975,151.20096 132.35931,151.26973 131.6145,151.44161 130.8353,151.7166 129.5061,152.19789 128.14251,152.89687 126.74454,153.81354 124.59031,155.25736 122.32149,157.29701 119.93807,159.93249 118.01302,162.04091 116.16817,164.2639 114.40351,166.60147 112.3868,169.25989 110.93154,171.76935 110.03774,174.12984 108.6398,177.86538 108.91481,180.61546 110.86277,182.38011 112.90244,184.25933 115.66398,184.43121 119.14741,182.89575 122.14961,181.61237 126.65288,178.00288 132.65724,172.06727 135.774,169.01926 139.89914,164.97434 145.03265,159.93249 150.34947,154.70734 154.4746,150.57075 157.40806,147.52271 158.46223,146.4227 159.4706,145.35704 160.43316,144.32573 160.93731,143.79866 161.44149,143.2601 161.94571,142.71005 162.40403,142.2059 162.64466,141.94235 162.6676,141.9194 162.87383,141.73609 163.18322,141.63296 163.59576,141.61001 163.77907,141.58713 164.46659,141.58713 165.65833,141.61001 166.34582,141.63296 167.03334,141.64442 167.7209,141.64439 169.09591,141.66734 170.45949,141.69026 171.81166,141.71314 174.51587,141.71318 177.47222,141.69026 180.6807,141.64439 182.23904,141.64442 183.88909,141.62151 185.63086,141.57564 187.02877,141.55275 187.83088,141.55275 188.03719,141.57564 188.63299,141.69026 188.78195,142.11423 188.48408,142.84755 188.30069,143.28302 187.63608,144.58931 186.49027,146.76643 186.51313,146.72063 185.82561,148.004 184.4277,150.61656 182.93802,153.36667 181.70048,156.01363 180.71508,158.55745 179.40874,162.04091 178.76705,164.87121 178.79001,167.04835 178.81289,170.11929 179.86709,172.77771 181.95262,175.02362 184.03805,177.29244 186.6048,178.50706 189.65287,178.66749 191.85289,178.80499 194.75194,178.49561 198.35003,177.73933 203.18554,176.75388 208.6628,174.93195 214.78183,172.27353 217.53184,171.08183 220.15588,169.85574 222.65396,168.59528 224.37268,167.72443 225.5873,166.97961 226.29783,166.36083 227.39778,165.37539 228.26864,164.19515 228.91042,162.82009 230.07911,160.25335 230.20516,157.62931 229.28856,154.94795 228.37177,152.26664 226.66442,150.27282 224.16651,148.96651 224.12059,148.94362 224.08621,148.93216 224.06338,148.93213 224.04038,148.90924 224.006,148.9207 223.96026,148.96651 223.84558,149.0582 223.77683,149.1155 223.754,149.13839 223.61641,149.23008 223.4789,149.32175 223.34149,149.4134 223.08931,149.61968 222.82576,149.82594 222.55083,150.03217 222.00073,150.42179 221.45071,150.81138 220.90078,151.20096 219.77774,151.95725 218.62041,152.66769 217.42879,153.33228 215.09113,154.63859 212.65043,155.76154 210.10667,156.70114 208.84614,157.18242 207.56277,157.60639 206.25655,157.97305 205.61479,158.15641 204.96164,158.32829 204.29711,158.4887 203.86161,158.58038 203.56368,158.62622 203.40333,158.6262 203.17408,158.62622 203.03658,158.52309 202.99081,158.31682 202.92199,157.72098 203.28867,156.57511 204.09085,154.8792 204.2512,154.53546 204.84705,153.3323 205.87841,151.26971 206.86378,149.34467 208.02111,146.93834 209.3504,144.05072 209.60241,143.52365 209.88888,142.90488 210.2098,142.19441 210.48473,141.59859 210.6337,141.27774 210.65669,141.23188 210.81704,141.00274 211.06913,140.88815 211.41297,140.88811 211.09205,140.88815 211.92853,140.85377 213.92242,140.78499 216.46618,140.69335 218.39124,140.61314 219.69762,140.54435 220.72881,140.49855 221.39342,140.45272 221.69143,140.40685 z"
       style="fill:#646464;" />
  </g>
</svg>
